<svg xmlns="http://www.w3.org/2000/svg" xmlns:xlink="http://www.w3.org/1999/xlink" viewBox="0 0 1018 1024.443">
  <defs>
    <style>
      .cls-1, .cls-3, .cls-4 {
        fill: #7654d2;
      }

      .cls-2 {
        clip-path: url(#clip-path);
      }

      .cls-3 {
        fill-rule: evenodd;
      }

      .cls-4 {
        font-size: 170px;
        font-family: Plumpfull;
      }
    </style>
    <clipPath id="clip-path">
      <path id="Union_6" data-name="Union 6" class="cls-1" d="M229.971,770.32c-3.564-5.422-2.786-10.339,2.384-14.683,12.543-10.534,26.071-20.157,37.058-32.261,14.131-15.574,27.088-32.31,40.232-48.856q2.651-3.905,5.227-7.862c17.677-27.255,30.787-56.953,42.7-87.275q1.16-2.721,2.317-5.434l-.013.022q-1.15,2.7-2.308,5.412,1.156-2.7,2.308-5.412l-.1.165q1.143-3.081,2.294-6.166-.735,1.981-1.474,3.965.739-1.982,1.478-3.965a1.132,1.132,0,0,1,.117-1.5h0q2.628-9.152,5.257-18.3l-.022-.031.013-.026q5.091-25.9,10.178-51.795,1.19-9.151,2.376-18.307l-.008.025q-1.182,9.143-2.372,18.277,1.188-9.137,2.372-18.277l-.02.064c.871-3.538,2.219-7.036,2.5-10.624.449-5.564-.066-11.217.363-16.79.125-1.605,2.084-3.065,3.206-4.593l0-.007c-1.121,1.529-3.083,2.985-3.208,4.6-.43,5.572.086,11.217-.363,16.79-.289,3.587-1.633,7.081-2.5,10.62a618.249,618.249,0,0,0-4.65-119.552q3.386-3.976,6.764-7.955v0q-3.376,3.978-6.764,7.956A22.476,22.476,0,0,1,373.285,354c-3.822-18.9-17.8-31-33.483-28.873-18.584,2.518-28.552,15.26-28.02,35.686.066,2.528-.32,5.067-.5,7.6l0,.007c-.043.5-.106,1.009-.188,1.509q1.12,3.477,2.239,6.951l1.325,7.821q.457,5.174.918,10.355.545,3.929,1.09,7.866l0,0a1.563,1.563,0,0,1,0,2.327v0l.422,57.194a49.629,49.629,0,0,1-1.876-5.857c-.488-2.477-.6-5.031-.871-7.553l-.007.012c.273,2.519.383,5.066.871,7.545a48.915,48.915,0,0,0,1.879,5.857c-1.794,14.943-3.232,29.947-5.517,44.809-1.207,7.85-7.358,12.328-13.039,10.441-6.6-2.188-8.655-7.4-7.565-14.292,2.282-14.418,4.486-28.841,6.721-43.259,3.247,4.6,5.8,6.476,8,5.624-2.191.845-4.745-1.029-7.988-5.628q-1.19-36.471-2.372-72.946-.141-1.312-.274-2.619-.556-3.761-1.1-7.517l-.009,0a54.6,54.6,0,0,1,22.546-66.829c21.753-13.072,51.211-7.447,66.188,12.69,7.811,10.5,12.863,22.069,12.375,35.706-7.315,3.3-4.142,10.254-5.248,15.781-.332,1.668-2.169,3.01-3.317,4.5l0,0c1.149-1.493,2.985-2.835,3.317-4.506,1.106-5.527-2.067-12.482,5.248-15.781a382.984,382.984,0,0,1,2.377,137.349l0,.038q-7.332,34.055-14.657,68.114c-8.03,32.819-21.425,63.319-37.9,92.306q-2.1,3.687-4.286,7.316c.151.363.3.708.465,1.026-2.016,3.974-3.169,6.752-4.732,9.253-23.523,37.626-52.723,69.6-87.992,95.511a39.983,39.983,0,0,1-5.142,3.608,12.871,12.871,0,0,1-5.781,1.577C234.569,774.727,232,773.394,229.971,770.32Zm152.8-206.189c-.321-.98-.826-2.724-1-3.139C381.945,561.414,382.452,563.154,382.772,564.131Zm-14.6-10.042c.774-.578,1.543-1.163,2.321-1.741q-1.5-2.05-2.98-4.1v.012q1.491,2.05,2.971,4.092c-.771.576-1.543,1.16-2.314,1.735Zm26.172-88.125c.528-1.33,1.465-2.648,1.516-3.994.418-10.766.637-21.54,1.028-32.306.027-.833.883-1.63,1.352-2.448l0,0c-.469.818-1.325,1.619-1.352,2.448-.391,10.766-.61,21.54-1.028,32.306-.051,1.349-.986,2.661-1.514,3.994Zm-6.627-6.743q1.629-2.355,3.254-4.709l0,0q-1.628,2.358-3.251,4.709ZM300.285,372.04c.31,3.329-.379,5.014-1.9,5.53,1.522-.514,2.213-2.2,1.9-5.534-.258-2.794.6-5.7.948-8.548l0-.014C300.887,366.333,300.027,369.241,300.285,372.04Zm3.216,5.125a10.33,10.33,0,0,0,1.739-2.725c.5-1.96.547-4.047.989-6.032.48-2.151,1.2-4.246,1.821-6.369l0-.008c-.617,2.127-1.34,4.222-1.821,6.382-.445,1.981-.485,4.063-.989,6.028a10.3,10.3,0,0,1-1.735,2.724Zm81.6-14.732a10.154,10.154,0,0,0,.33,1.99,10.067,10.067,0,0,1-.326-1.99,23.046,23.046,0,0,1,.664-4.608h0A23.588,23.588,0,0,0,385.1,362.433Zm1.825-4.588c-.374-.008-.748-.012-1.122-.02C386.171,357.833,386.546,357.841,386.922,357.845ZM190.9,752.241c-3.564-5.418-2.786-10.339,2.384-14.679,12.543-10.538,26.071-20.157,37.058-32.261,10.556-11.634,20.455-23.914,30.268-36.281,11.646-16.64,23.4-33.231,33.154-51,11.625-21.174,19.5-44.581,29.032-67,.172.635.313,1.288.453,1.943-.139-.656-.28-1.311-.453-1.947l9.69-36.681-.019-.038q3.9-33.665,7.811-67.323-2.473-36.713-4.947-73.419v0a8.307,8.307,0,0,1-.742-1.252c-.035-.089.391-.378.606-.578v0l.015-.089q1.2-1.293,2.407-2.595l.043-.037q1.991-2.78,3.979-5.564v0q-1.991,2.779-3.982,5.563h0l0,0h0l-.039.037c-.883-.008-1.762-.012-2.645-.02a1.615,1.615,0,0,1-.274-1.745q.707-1.637,1.417-3.278-.71,1.639-1.421,3.278c-.8-3.25-3.079-7.162-2.071-9.6,1.735-4.193,4.959-9.253,8.639-10.518,2.618-.895,9.12,3.063,10.21,6.223,2.559,7.423,2.907,15.671,4.154,23.586a2.527,2.527,0,0,1-1.462.475,2.526,2.526,0,0,0,1.466-.475q.516,2.642,1.028,5.279.276,3.746.555,7.492a267.281,267.281,0,0,1,1.36,74.866h0q-.229,3.11-.465,6.216-.223,2.349-.453,4.7c-1.562,28.738-6.683,56.686-17.221,83.418l.016.029v0h0q-3.862,11.534-7.716,23.06l.032-.155-.032.155a352.2,352.2,0,0,1-31.652,66.489c-1.49,3.039-2.514,5.34-3.827,7.442-23.523,37.626-52.723,69.6-87.992,95.511a39.943,39.943,0,0,1-5.142,3.6,12.85,12.85,0,0,1-5.78,1.579C195.495,756.65,192.922,755.316,190.9,752.241ZM329.978,564.578a14.672,14.672,0,0,1,3.973-.741,14.662,14.662,0,0,0-3.977.741.4.4,0,0,1-.163.012A.4.4,0,0,0,329.978,564.578Zm-.188.009h0Zm-5.138-7.1c.587,1.058,1.374,2.435,2.176,3.7-.8-1.261-1.589-2.64-2.176-3.7a8.163,8.163,0,0,1-.385-.8A8.252,8.252,0,0,0,324.652,557.485Zm15.682,1.282c-.9-2.9-1.793-5.8-2.787-8.664a10.824,10.824,0,0,0-1.837.366l0,.007a10.347,10.347,0,0,1,1.829-.369c.991,2.855,1.88,5.748,2.779,8.639Zm4.276-20.783c-.3-.567-.81-1.227-1.3-2.112l-.094.154.094-.154C343.8,536.757,344.308,537.417,344.609,537.984Zm-9.774-18.65c-.7-1.655-1.5-3.256-2.29-4.867h0C333.332,516.078,334.133,517.684,334.835,519.335Zm20.233-60.175c-.146,1.229-.31,2.458-.475,3.688.166-1.23.33-2.46.479-3.692.269-2.267.5-4.534.75-6.8C355.574,454.622,355.337,456.893,355.068,459.16Zm-6.311,1.167c.272-.42.573-.825.839-1.247C349.329,459.5,349.027,459.907,348.757,460.327Zm-4.224-83.447c1.011-1.706,2.016-2.294,3.016-2.3-1,0-2.006.583-3.018,2.286Zm-9.214-3.405q-.069-.735-.114-1.469C335.234,372.5,335.271,372.985,335.32,373.474Zm-183.5,356.173c-3.564-5.422-2.786-10.339,2.384-14.683,12.543-10.534,26.071-20.157,37.058-32.261,17.267-19.03,32.78-39.794,49.027-59.829,1.74-2.144,3.146-5.163,5.069-6.753,9.829-17.52,18.824-35.59,28.332-53.324,1.6-2.985,2.481-7.154,4.912-8.7,3.114-1.981,7.819-3.193,11.171-2.229,2.735.777,4.49,5.251,6.338,7.651-1.25,4.3-1.872,7.26-2.95,10.026C276.97,611.148,254.17,648.335,224.3,680.775a41.253,41.253,0,0,1-4.388,4.559,15.79,15.79,0,0,1-2.854,1.821,334.832,334.832,0,0,1-46.876,41.714,39.963,39.963,0,0,1-5.142,3.608,12.871,12.871,0,0,1-5.781,1.577C156.42,734.055,153.847,732.722,151.821,729.647ZM347.55,713.073c-6.611-4.991-4.837-10.705-1.266-16.973,9.929-17.42,20.518-34.555,28.982-52.74,10.1-21.682,18.256-44.337,27.255-66.568q1.19-4.02,2.4-8.061a1.939,1.939,0,0,1,.448-2.02l0,0q3.487-13.2,6.97-26.412l-.026-.017c2.6-17.343,5.1-34.706,7.866-52.024,1.121-7.008,5.6-10.864,12.3-9.509,5.826,1.176,9.581,5.833,8.382,12.291-4.188,22.631-8.822,45.179-13.288,67.757l0,0,.06-.135,0-.012,0,.012.007-.016q-1.33,5.155-2.665,10.319c-12.621,50.2-34.171,96.113-61.742,139.108-2.992,4.667-6.535,7.037-10.079,7.038A9.26,9.26,0,0,1,347.55,713.073Zm71.471-143.59c-.16.138-.152.5-.219.757.07-.256.059-.618.223-.757a2.936,2.936,0,0,1,.835-.385l.006-.006A2.9,2.9,0,0,0,419.021,569.484Zm1.076-.546.006,0c.351-.379.7-.756,1.052-1.14C420.8,568.178,420.45,568.556,420.1,568.937Zm-14.389-2.589.005-.006Zm.046-.054.026-.031Zm.045-.054.036-.043Zm.046-.056.039-.048Zm.046-.057.039-.049Zm.046-.058a17.7,17.7,0,0,0,1.327-2.075A17.733,17.733,0,0,1,405.937,566.069Zm1.334-2.087,0-.008Zm13.324-1.945,0-.021Zm-.225-3.84a12.993,12.993,0,0,1,.232,3.79,12.988,12.988,0,0,0-.232-3.8,1.025,1.025,0,0,1-.017-.176A1.032,1.032,0,0,0,420.369,558.2Zm-7.741-14.182a43.575,43.575,0,0,0,2.845,5.239c.558-.375,1.627-.881,1.643-1.122-.024.243-1.084.745-1.639,1.118a43.342,43.342,0,0,1-2.845-5.239,11.953,11.953,0,0,1-.268-3.689h0A11.879,11.879,0,0,0,412.629,544.015Zm13.555.155c-.125.793,1,1.8,2.036,3.416-1.032-1.623-2.157-2.623-2.036-3.416.133-.875,1.418-1.558,2.2-2.322C427.6,542.611,426.313,543.295,426.184,544.169Zm3.532.374c0,.012,0,.025,0,.037,0-.012,0-.025,0-.037ZM401.457,707.2c-6.225-3.839-6.8-9.082-3.544-15.4,6.256-12.133,13.1-24.009,18.439-36.577,9.167-21.573,17.365-43.593,25.969-65.422q1.254-3.978,2.512-7.96l-.066.134q1.231-4,2.462-8.013l-.137.041c.811-.345,2.067-.769,2.918-1.121-.852.351-2.111.775-2.922,1.121q5.021-22.122,10.033-44.235l-.026-.037,0,0h0q4.091-36.233,8.186-72.466-.117-22.067-.231-44.134-.188-2.508-.375-5.019l.047.02q-.82-9.1-1.637-18.189-.17-3.99-.332-7.988l0,0c-2.5-14.783-5.048-29.556-7.494-44.347-5.724-34.608-22.812-61.383-51.027-80.535-2.075-1.411-4.24-2.693-6.228-4.222-4.986-3.831-7.084-8.659-3.235-14.443,3.79-5.7,8.6-7.415,14.942-3.522a141.448,141.448,0,0,1,44.443,42.572c17.279,25.949,24.238,55.31,25.77,86.384l-.006,0a2.318,2.318,0,0,1,.174,2.109l1.852,13.385a365.726,365.726,0,0,1,2.438,80.56c-.727,30.1-3.614,59.89-11.664,88.95-.633-1.342-1.27-2.68-1.9-4.018v.006l1.9,4.008a1.583,1.583,0,0,1-.34,1.822q-1.2,5.325-2.383,10.641l0,0q-1.447,6.2-2.89,12.41l0,.008-.082.394q-.649,1.993-1.3,3.989l-.555,1.7.555-1.7-.555,1.7c-10.347,28.979-20.389,58.084-31.2,86.876-3.739,9.973-9.319,19.2-14.145,28.723a56.364,56.364,0,0,1-4.556,7.687c-2.441,3.355-5.238,5.761-8.671,5.761A9.81,9.81,0,0,1,401.457,707.2Zm49.464-134.865a.125.125,0,0,1-.049.1.132.132,0,0,0,.053-.1c-.746-4.53-.112-6.656,1.21-7.514C450.813,565.675,450.177,567.8,450.922,572.335Zm12.012-6.589a7.8,7.8,0,0,1,2.391-.484,7.78,7.78,0,0,0-2.4.484,2.984,2.984,0,0,1-.94.133A3,3,0,0,0,462.933,565.746Zm-4.771-.643-.327-.091Zm11.472-4.137.28-10.1c.822-.068,1.645-.131,2.467-.2-.821.068-1.642.131-2.467.2h0q-.14,5.051-.28,10.1ZM452.817,556.3a2.522,2.522,0,0,0-.058.553,2.535,2.535,0,0,1,.058-.553c.006-.029.014-.058.022-.087C452.831,556.24,452.823,556.268,452.817,556.3Zm2.673-3.331Zm9.534-2.013,0,0,1.175-.034Zm-4.089-15.9h0q-1.882-2.6-3.757-5.209l0,.015Q459.061,532.454,460.935,535.052Zm13.225-69.136c1.681-1.615,4.538-3.063,4.943-4.864C478.7,462.852,475.836,464.3,474.159,465.915Zm4.974-5.039c.405-3.021,1.029-4.027,1.774-4.028h0C480.161,456.848,479.537,457.854,479.134,460.876Zm-6.717-1.444c-.25-1.19.138-2.571-.21-3.687C472.555,456.862,472.163,458.242,472.417,459.432Zm-7.131-2.168a7.617,7.617,0,0,0,1.559-1.883A7.706,7.706,0,0,1,465.286,457.264Zm6.885-1.627c-.844-2.347-2.044-4.555-3.1-6.821-.541,1.627-1.042,3.27-1.607,4.883.566-1.614,1.068-3.255,1.607-4.879C470.127,451.086,471.327,453.291,472.171,455.638Zm.152-88.121c.246,2.119-.023,4.291.113,6.43a16.6,16.6,0,0,0,.86,3.217l0-.007a16.256,16.256,0,0,1-.856-3.206c-.141-2.139.129-4.311-.113-6.43a18.262,18.262,0,0,0-1.43-4l0,.012A18.094,18.094,0,0,1,472.323,367.517ZM117.514,706.305c-4.029-.508-9.464-2.7-11.222-5.719-1.692-2.912.207-7.878,1.18-11.771.344-1.362,2.5-2.408,4.044-3.278,31.9-18.031,58.515-41.541,81.78-68.545,15.674-19.529,28.611-41.019,39.671-63.86l.053.047q2.461-6.163,4.922-12.33.955,2.117,1.911,4.23l1.594-1.171,0,0-1.592,1.17q-.955-2.111-1.911-4.23l.141-.325h0c5.556-25.11,11.691-50.111,16.422-75.391,2.27-12.128,1.9-24.786,2.716-37.211a33.9,33.9,0,0,1,.68-5.031c.613-2.169,1.568-4.233,2.38-6.345v0c-.813,2.111-1.77,4.177-2.387,6.349a33.886,33.886,0,0,0-.676,5.035c-1.211-10.172-2.716-20.312-3.544-30.512-.625-7.716,3.864-14.223,9.581-14.056,7.467.216,11.152,5.418,11.492,12.621.918,19.238,2.388,38.537,1.739,57.743-.484,14.392-3.914,28.67-6.032,43v.035q-6.8,24.47-13.59,48.933l-.02-.016A243.18,243.18,0,0,1,228.45,603.48c-18.208,28.783-44.521,58.5-71.276,78.8-9.534,7.236-19.705,13.727-29.8,20.271-2.685,1.738-6.122,3.8-9.105,3.8A5.965,5.965,0,0,1,117.514,706.305ZM236.019,565.29l.152-.1a33.992,33.992,0,0,0,1.264-5.678C237.191,561.405,236.424,563.377,236.019,565.29Zm16.3-21.609.013-.005Zm.034-.012a1.786,1.786,0,0,1,.526-.093A1.736,1.736,0,0,0,252.358,543.669ZM264.5,465.83q1.243-.1,2.277-.1c-.691,0-1.449.031-2.281.1h0ZM457.006,690.61c-6.479-3.909-5.287-9.717-3.083-15.87,11.441-31.891,22.695-63.864,34.108-95.763,2.012-5.629,5.635-10.441,11.918-9.078,5.693,1.232,9.061,5.771,8.487,13.532-2.727,9.338-5.162,19.9-8.874,29.943-8.628,23.346-17.7,46.517-26.954,69.6-2.375,5.923-6.407,9.093-10.649,9.093A9.551,9.551,0,0,1,457.006,690.61Zm59.94-29.447c-7.291-2.717-8.139-8.964-5.74-15.931,4.58-13.267,9.226-26.51,13.844-39.765q3.511-13.148,7.026-26.3l-.191.052h0l.013-.046q4.332-20.848,8.669-41.7l.927.433-.931-.437q.381-2.489.762-4.986h0q2.977-25.9,5.958-51.793c.824-3.128,2.274-6.231,2.368-9.383.3-10.376.094-20.771.164-31.155a16.728,16.728,0,0,1,.831-3.638l0-.006a17.038,17.038,0,0,0-.832,3.644c-.074,10.388.137,20.78-.164,31.155-.094,3.152-1.54,6.255-2.368,9.383.137-15.386.727-30.785.3-46.155-.684-24.432-2.048-48.839-3.122-73.259a12.772,12.772,0,0,0,2.638-2.566c1.543-2.712,2.836-5.574,4.23-8.379l0,0c-1.391,2.806-2.684,5.67-4.228,8.383a12.89,12.89,0,0,1-2.642,2.566c-2.43-13.963-4.74-27.954-7.326-41.888a217.547,217.547,0,0,0-31.181-78.388c-1.61-2.514-4.329-5.1-4.349-7.667-.027-3.848.8-9.082,3.271-11.173s7.979-2.42,11.07-.984c3.423,1.59,6.01,5.78,8.288,9.314,23.449,36.39,35.323,76.789,38.133,120.288-3.776,3.281-4.24,5.993,1.1,7.708-5.344-1.715-4.876-4.427-1.1-7.708q.616,3.874,1.231,7.748.668,6.591,1.328,13.183l0,.007,1.348,10.555q.421,6.87.838,13.743l.1,1.558-.1-1.558q.048.781.1,1.562.17,32.634.34,65.259-.2,2.443-.4,4.878l0,.007-6.834,64.4h0q-.094,1.836-.188,3.672a8.775,8.775,0,0,1,.313,1.627c0,.177-.377.365-.61.546q-1.79,9.172-3.58,18.346.311.146.634.293l-.932,1.237q-1.858,9.527-3.718,19.054a36.4,36.4,0,0,0-11.418-18.128.3.3,0,0,0-.2-.052.293.293,0,0,1,.193.052A36.405,36.405,0,0,1,552.223,576.9c-7.1,25.107-14.047,50.263-21.4,75.289-1.58,5.387-4.716,9.768-9.851,9.768A11.516,11.516,0,0,1,516.946,661.163Zm35.812-99.086a25.367,25.367,0,0,1-2.743-4.909A24.961,24.961,0,0,0,552.758,562.077Zm-15.317-1.334a.982.982,0,0,1,.077-.17A.982.982,0,0,0,537.441,560.743Zm14.184-6.316a10.055,10.055,0,0,1,1.33.4,9.972,9.972,0,0,0-1.33-.4Zm-.308.162.03-.026Zm.031-.027a.622.622,0,0,1,.209-.13A.622.622,0,0,0,551.348,554.562Zm.234-.136h0ZM545.506,539.8a42.444,42.444,0,0,0,.323-6.641,42.9,42.9,0,0,1-.327,6.637l-1.6-.75Zm7.713-74.048c1.653-1.07,3.782-1.782,4.833-3.3,1.11-1.611,1.168-4,1.735-6.028-.57,2.03-.629,4.417-1.739,6.028-1.047,1.52-3.178,2.232-4.83,3.3Zm11.476-3.205.031-.033-.031.033Zm2.219-.3c.074-8.939.211-17.873.164-26.807-.008-1.5-.793-3-1.215-4.5l0,.01c.426,1.5,1.21,2.994,1.217,4.493C567.122,444.37,566.989,453.3,566.915,462.243Zm-7.127-5.824c.227-.8.59-1.558.891-2.335A24.421,24.421,0,0,0,559.788,456.419Zm4.978-20.723Zm-11.371-58.527c.586-2.286,1.172-4.572,1.805-7.061v0C554.567,372.6,553.977,374.883,553.395,377.168Zm5.795-.435Zm-1.473-.407c.27-.166.607-.507.8-.507h0C558.323,375.819,557.983,376.16,557.717,376.326Zm.86-.5.026.013-.026-.013-.013,0ZM555,369.436c-.6-1.974-1.2-3.921-1.793-5.869C553.8,365.516,554.394,367.464,555,369.436Zm2.173-9.729ZM130.452,638.387c-4.623-6.178-1.649-10.892,2.575-15.931,14.962-17.855,29.783-35.845,44.279-54.1,4.185-5.263,7.108-11.608,10.613-17.461q2.449-5.238,4.9-10.473l0,0q1.665-3.85,3.329-7.7c.125,3.046.426,6.1.274,9.127.156-3.026-.148-6.081-.27-9.127q8.452-32.536,16.9-65.08c.785-3.994,1.52-8,2.384-11.978a30.7,30.7,0,0,1,1.36-3.844c.048.157.1.314.154.47-.054-.158-.106-.316-.154-.474a30.564,30.564,0,0,0-1.364,3.844c-.864,3.978-1.6,7.984-2.384,11.978q-.094-33.732-.188-67.455c-.09-.854-.18-1.7-.27-2.562a1.568,1.568,0,0,1-.134-1.706q-1.142-5.659-2.281-11.313,1.142,5.653,2.281,11.313v0q-1.137-5.655-2.278-11.315a1.486,1.486,0,0,1-.184-1.741q-.7-2.971-1.395-5.934.7,2.965,1.395,5.934l0-.008c-.469-1.981-.934-3.953-1.4-5.934-.133-1.759-.273-3.511-.406-5.266h0c-8.131-50.141,20.178-109.689,67.083-136.858,23.46-13.593,48.5-19.929,75.234-17.949,3.829.281,8.487,3.469,10.718,6.8,1.5,2.229.621,8.826-1.391,10.38a22.263,22.263,0,0,1-13.336,4.3c-20.377-.525-39.637,3.673-57.467,13.808-39.4,22.39-59.221,57.527-61.339,103.873-.194,4.281-.2,8.574-.291,12.863l.01.071c7.42,31.729,10.535,63.721,5.486,96.223l-5.033-2.652q-.533-3.032-1.071-6.06c-.252.191-.689.452-.869.617.185-.165.614-.416.862-.6q.539,3.026,1.071,6.056l-.039.032q-2.407,1.024-4.814,2.04s0,0,0,.006c1.606-.683,3.208-1.363,4.818-2.042l.039-.037,5.033,2.652a219.657,219.657,0,0,1-27.481,93.494c-13.481,31.338-34.393,56.807-58.53,79.616-2.993,2.83-6.085,4.176-8.921,4.176A9.28,9.28,0,0,1,130.452,638.387ZM187.375,564.1Zm18.037-5.45c-.856-.894-1.753-2.271-2.608-3.144C203.659,556.383,204.556,557.761,205.412,558.653Zm-8.576-.285c1.122-.815,2.092-2.2,3.11-3.019C198.928,556.168,197.959,557.553,196.837,558.368Zm-4.741-3.4.063-.156Zm.153-.384.04-.1Zm-4.109-3.8q.308-.145.6-.268Q188.448,550.64,188.14,550.786Zm1.2-.507a6.757,6.757,0,0,1,1.644-.411A6.757,6.757,0,0,0,189.339,550.279Zm2.054-.426h0Zm3.082-5.05c.68-.984,1.891-1.944,1.942-2.965-.055,1.02-1.259,1.978-1.943,2.961Zm33.342-82.264q-.236-.621-.475-1.242Q227.58,461.919,227.818,462.54Zm-7.205-7.118c-.916,5.613-1.6,7.181-2.115,5.4C219.016,462.61,219.7,461.042,220.612,455.422Zm1.14.617c-.389-.205-.819-.405-1.14-.617C220.934,455.635,221.364,455.835,221.752,456.039Zm-3.793-77.346c.738-4.8,1.962-9.6,2.044-14.418.015-.8-.36-.69-.9-.237.537-.446.907-.549.895.245-.086,4.81-1.3,9.6-2.045,14.4Zm3.13-35.495c-.371,3.73-.012,7.646-.985,11.173-.836,3.034-4.13,5.479-4.58,8.468-.569,3.8.137,4.12,1.143,3.437-1,.675-1.7.348-1.131-3.445.445-2.989,3.743-5.43,4.58-8.468.969-3.526.61-7.443.985-11.173.021-.2.331-.481.682-.693C221.427,342.711,221.11,343,221.089,343.2ZM98.9,609.745c-4.638-5.527-2.5-10.8,2.173-15.85,12.328-13.312,24.3-26.986,36.41-40.518h.006c7.017-14,13.854-28.106,21.145-41.954,2.888-5.487,6.064-12.3,14.079-8.139,7.3,3.795,8.284,9.985,4.583,17.27q-7.737,15.228-15.4,30.5c-11.562,23.464-28.794,41.974-47.636,59.1-2.615,2.375-5.3,3.6-7.878,3.6C103.724,613.75,101.167,612.443,98.9,609.745Zm40.946-56.2c.84,2.718,1.764,4.4,2.754,5.272-.988-.878-1.911-2.557-2.75-5.272-.029-.093-.2-.139-.44-.16C139.653,553.405,139.82,553.451,139.849,553.544Zm-1.465-.167h.008c.19,0,.38-.009.558-.009h0C138.769,553.368,138.576,553.373,138.384,553.377Zm23.519-2.326q-.189-.114-.375-.217Q161.714,550.937,161.9,551.051Zm-.531-.3q-.318-.17-.627-.31Q161.054,550.579,161.372,550.749Zm-.812-.392-.037-.016Zm416.46,61.7c-7.174-1.806-8.522-7.614-7.158-14.146,1.3-6.231,3.29-12.3,4.974-18.441,1.594-3.827,4.111-7.537,4.568-11.506-.457,3.97-2.974,7.679-4.568,11.506,3.4-21.975,7.717-43.849,9.952-65.95,2.758-27.249,3.778-54.68,5.552-82.031l0-.006q-.885-17.442-1.778-34.885c-.363-7.191,3.064-12.141,9.64-12.755,6.924-.647,10.589,4.58,10.953,11.323.629,11.636.75,23.313.817,34.978.059,9.932-.266,19.868-.418,29.8h0q-4.947,46.745-9.9,93.492h0q-1.248,6.471-2.5,12.935.012-6.452.031-12.9h0q-.012,6.448-.027,12.9c-2.524,12.169-4.884,24.379-7.635,36.491-1.27,5.595-4.2,9.6-9.42,9.6A12.58,12.58,0,0,1,577.019,612.059Zm2.457-44.77c.561-5.511.3-10.192,6.677-3.812-2.187-2.188-3.593-3.076-4.519-3.076C579.857,560.4,579.845,563.666,579.476,567.29Zm12.884-5.416c2.052-2.366,3.238-5.555,4.781-8.4-1.543,2.848-2.728,6.036-4.785,8.4a8.834,8.834,0,0,1-5.054,2.307A8.839,8.839,0,0,0,592.36,561.874ZM586.667,564l-.121-.125Zm10.452-10.534h0q.246-5.678.5-11.36.844,5.5,1.684,11.014-.12.044-.241.083.123-.039.245-.083L597.623,542.1Q597.372,547.789,597.119,553.467Zm5.025-92.847c.184,1.672.418,3.335.629,5a30.041,30.041,0,0,1,3.357-4.6,4.017,4.017,0,0,1,2.1-.8,4.031,4.031,0,0,0-2.1.793,30.039,30.039,0,0,0-3.357,4.6c-.211-1.668-.445-3.331-.629-5-.154-1.4-.293-2.8-.431-4.2C601.85,457.818,601.987,459.219,602.144,460.62Zm-5.209-3.844c.106.935,1.665,1.692,2.556,2.534.675-1.653,1.342-3.306,2.017-4.959v-.011c-.672,1.655-1.344,3.315-2.016,4.966-.887-.838-2.45-1.6-2.556-2.534-.649-5.666-.457-11.482-1.586-17.021C596.475,445.291,596.287,451.107,596.936,456.776Zm-1.586-17.026c-.426-2.088-1.854-3.955-3.269-5.825C593.494,435.8,594.924,437.662,595.349,439.751ZM447.225,573.97q-1.231,4-2.462,8.013Q446,577.974,447.225,573.97ZM70.847,576.378c-4.165-5.56-2.231-10.534,2.243-14.748,3.048-2.867,6.365-5.426,9.562-8.118.879.622,2.168,1.3,3.221,1.948-1.053-.648-2.342-1.328-3.221-1.952a186.624,186.624,0,0,0,45.362-83.175v0c5.051-28.5,2.636-56.718-2.666-84.894-1.02-5.418-.641-11.12-.91-16.692-4.021-39.761,5.424-76.81,21.753-112.187,10.8-23.395,25.164-44.345,43.932-61.753,4.079-4.169,8.03-8.484,12.273-12.466,5.138-4.82,10.847-6.809,16.173-.565,5.232,6.133,3.247,11.742-2.325,16.493-1.887,1.615-3.872,3.1-5.814,4.649-23.828,23.9-43.576,51.036-53.708,84-6.365,20.7-9.053,42.627-13.391,64h0q.006,3.91.012,7.816l0,0a2.814,2.814,0,0,1,0,2.392c-.577-.394-1.155-.8-1.732-1.19l0,0c.578.395,1.153.8,1.731,1.2,2.95,26,7.135,51.939,8.335,78.022.633,13.743-3.943,27.743-6.166,41.628.411-3.026.874-6.049,1.293-9.076-.42,3.027-.884,6.05-1.293,9.076-5.76,28.576-18.654,53.248-37.641,74.589a8.807,8.807,0,0,0-3.1-1.669,8.821,8.821,0,0,1,3.1,1.669c-7.3,7.528-14.368,15.309-21.96,22.492-2.324,2.2-4.743,3.3-7.1,3.3C75.983,581.164,73.24,579.576,70.847,576.378Zm17.537-12.145-.018-.01Zm-.7-7.02c-.58,4.529-.222,6.487.679,7.007-.9-.521-1.257-2.478-.679-7a.427.427,0,0,0,0-.05A.422.422,0,0,1,87.681,557.213Zm7.42,3.193Zm9.632-6.714-.02-.005Zm25.737-88.558c.821-10.393,1.479-20.8,2.186-31.207C131.948,444.331,131.288,454.738,130.47,465.133Zm17.327-2.064q-.021.259-.043.517.022-.257.043-.513c0-.034,0-.068.007-.1C147.8,463,147.8,463.036,147.8,463.068Zm-7.382-3.792a.4.4,0,0,1-.069-.006A.4.4,0,0,0,140.415,459.276Zm.054,0c.345-.059.415-.69.414-1.433C140.884,458.581,140.814,459.212,140.469,459.271Zm.4-1.986c0,.093.005.187.007.279,0-.092,0-.186-.007-.279v0Zm0-.095c-.026-.87-.069-1.716.167-1.872C140.8,455.474,140.844,456.32,140.87,457.19Zm1.507-.441q-.075-.121-.145-.23Q142.3,456.629,142.377,456.749Zm-.146-.231c-.179-.279-.336-.5-.472-.681C141.9,456.015,142.052,456.239,142.231,456.519Zm-4.493-.418c-.442-9.126-.533-18.27-1.031-27.392C137.2,437.832,137.292,446.975,137.738,456.1Zm3.9-.411-.059-.069Zm-.088-.1-.041-.044Zm-.042-.045c-.167-.175-.293-.251-.388-.251C141.218,455.293,141.344,455.369,141.511,455.544Zm-11.532-78.38c.184-3.36-.1-6.837.653-10.05,1.489-6.373,3.548-12.6,5.369-18.9q3.245,1.2,6.487,2.389-3.241-1.2-6.487-2.389c-1.825,6.288-3.884,12.519-5.373,18.892-.75,3.211-.469,6.69-.652,10.044Zm-5.5-8.434c.738-.274,2.029-.781,2.136-.791h0C126.521,367.938,125.221,368.454,124.479,368.73Zm75.33-165.513c.839-1.726.337-4.113.656-6.17C200.146,199.1,200.644,201.491,199.809,203.217Zm-7.882-3.321q-.9-2.543-1.805-5.09Q191.024,197.351,191.927,199.9Zm8.554-2.946a2.99,2.99,0,0,1,.894-1.388A2.957,2.957,0,0,0,200.481,196.949Zm1.418-.675a7.517,7.517,0,0,1,.16-1.473h0A7.512,7.512,0,0,0,201.9,196.274Zm203.02,372.457q-1.2,4.039-2.407,8.069Q403.714,572.762,404.919,568.731ZM47.793,541.285c-5.256-5.914-2.575-10.864,1.5-15.923,8.479-10.51,17.513-20.658,24.918-31.944,5.041-7.683,7.709-17.062,11.441-25.681q1.1-4.191,2.212-8.383a1.969,1.969,0,0,1,.254-1.977c.036.016.073.031.111.045-.038-.014-.075-.029-.111-.045,4.013-27.4-3.947-53.915-5.467-80.905-.168-3-1.532-6.711-.317-8.834,2.321-4.043,5.646-9.334,9.382-10.188,5.576-1.273,10.183,3.026,10.914,9.664,2.63,23.907,5.83,47.782,7.323,71.766.594,9.516-2.715,19.3-4.251,28.955h0q-1.124,4.282-2.251,8.556v.013c-6.2,26.6-21.37,47.233-40.352,65.243-2.5,2.372-5.1,3.685-7.711,3.686C52.834,545.333,50.268,544.065,47.793,541.285Zm52.985-85.009c-2.1,4.874-3.225,7.513-4.507,8.068,1.285-.551,2.409-3.19,4.515-8.072.522-1.214,2.037-1.965,3.1-2.934v0C102.822,454.3,101.306,455.06,100.778,456.276Zm399.252,71.116q2.339-19.529,4.685-39.058a2.657,2.657,0,0,1,.152-2.424l0-.026q-1.008-59.694-2-119.4c.505.116,1.249.157,1.756.275-.506-.118-1.249-.159-1.756-.275-2.016-11.864-3.966-23.74-6.057-35.592-8.905-50.466-35.077-88.491-76.805-115.27-.961-.727-1.929-1.455-2.889-2.182,2.547-5.209,5.327-10.41.368-15.841,4.96,5.431,2.175,10.631-.368,15.841h0c.96.727,1.929,1.455,2.889,2.182-.961-.723-1.929-1.455-2.889-2.182l-.077.157q-2.309-1.373-4.619-2.749c0-.059,0-.118,0-.177,0,.058,0,.115,0,.173q-2.608-1.1-5.216-2.208,1.571-10.1,3.142-20.2a7.21,7.21,0,0,1,2.184,1.009v0q2.589,1.024,5.166,2.056c27.938,11.4,49.171,31.785,66.919,56.055,21.624,29.569,33.049,63.453,35.343,100.595-3.354,6.8-9.686,13.379-1.24,20.812-8.446-7.433-2.111-14.008,1.243-20.812,1.989,14.483,5.58,28.959,5.654,43.454.2,37.073-1.149,74.15-1.958,111.223-.023,1.188-.926,2.355-1.422,3.534.836-22.374,1.836-44.744,2.391-67.122.141-5.771-1.129-11.575-1.751-17.367l0,.016c.622,5.785,1.893,11.586,1.748,17.347-.551,22.382-1.551,44.752-2.387,67.122-.731,6.772-.5,13.877-2.532,20.194-1.313,4.084-5.424,8.948-9.183,10.01a8.878,8.878,0,0,1-2.423.353C503.67,536.92,500.5,533.152,500.031,527.392Zm19.17-150.52a12.67,12.67,0,0,0,.675-6.408,12.675,12.675,0,0,1-.679,6.4c-.247.621-.507.622-.783.3C518.691,377.493,518.953,377.495,519.2,376.871Zm-4.9-.232c1.247-4.99,2.286-3.107,3.173-1.224.136.287.268.574.4.837-.129-.264-.261-.552-.4-.841-.887-1.882-1.929-3.764-3.175,1.222Zm-6.987-.87c.474-1.864.94-3.731,1.415-5.595-.475,1.863-.942,3.727-1.417,5.587Zm2.591-10.087Zm.529-1.245c.167-.314.343-.625.5-.943l0,0C510.776,363.809,510.6,364.122,510.434,364.438Zm-94-160.761v0c-.327-.244-.953-.6-.956-.726C415.469,203.069,416.109,203.429,416.438,203.676Zm-.288-2.6c.431-1.16.884-2.311,1.33-3.465l0-.011,0,0,0,0v0C417.035,198.754,416.582,199.911,416.15,201.076Zm1.331-3.48q.111-3.044.215-6.089Q417.591,194.552,417.482,197.6ZM627.246,521.929c1.622-12.669,2.747-25.436,5.025-37.976,1.719-9.481,4.888-18.677,7.467-27.983a6.824,6.824,0,0,1,1.3-1.853l0-.006a6.926,6.926,0,0,0-1.305,1.855c-2.583,9.306-5.748,18.5-7.467,27.983-2.274,12.539-3.4,25.306-5.025,37.976,1.258-32.611,3.091-65.21,3.564-97.833.289-20.165-1.485-40.363-2.333-60.545v-.007a13.153,13.153,0,0,1-.513-2.128c-.016-.2.543-.455.836-.687,0,0,0,0,0,0l-.07-.244c1.085-.575,2.257-1.39,3.372-2.048-1.115.658-2.287,1.471-3.372,2.044-3.575-20.186-7.205-40.367-10.722-60.565-4.888-28.08-14.4-54.444-26.926-79.726-1.88-3.795-3.435-7.764-5.138-11.657-15.853-20.377-30.412-42.055-47.851-60.834-27.7-29.833-61.488-50.8-99.07-64.9-2.337-.879-4.751-1.594-7.006-2.66-6-2.839-13.184-5.011-10.656-14.467,1.965-7.366,7.709-9.8,17.224-5.987,15.052,6.036,30.263,12,44.51,19.779C532.642,106.506,572.217,144.9,601,195.05a34.551,34.551,0,0,1,1.874,4.739h0c16.579,24.29,26.371,51.983,32.256,80.482,6.748,32.672,9.714,66.194,14.325,99.346-7.205-.268-7.881-5.165-7.444-11.079-.441,5.91.238,10.811,7.44,11.079.836,26.893,2.012,53.777,2.344,80.674.137,11-1.542,22.017-2.4,33.022,0,.019,0,.038,0,.057-.789,9.281-.762,18.762-2.747,27.763-.868,3.941-5.341,8.814-9.058,9.855a9.553,9.553,0,0,1-2.569.368C630.673,531.355,627.341,527.982,627.246,521.929Zm16.247-56.018c.7-1.192,1.872-2.322,2.008-3.579.916-8.176,1.615-16.376,2.383-24.569,0-.017,0-.034,0-.05-.766,8.208-1.461,16.424-2.383,24.611-.141,1.26-1.312,2.394-2.007,3.581ZM637.1,363.791a30.473,30.473,0,0,0,.012,5.137c.289,2.754.793,5.479,1.208,8.212l0-.013c-.414-2.733-.917-5.453-1.205-8.2a30.46,30.46,0,0,1-.012-5.137c.367-5.675-.9-6.85-2.763-6.39a2.829,2.829,0,0,1,.673-.09C636.5,357.311,637.421,358.835,637.1,363.791Zm2.489,4.812q-.123.627-.23,1.258.108-.63.23-1.258Zm2.427-.065c.117-1.582-.543-3.229-.848-4.844l0,.009C641.47,365.316,642.129,366.957,642.016,368.538Zm-49.9-170.462q.25,2.028.47,4.061-.221-2.03-.466-4.057a8.984,8.984,0,0,0-.348-1.527A8.9,8.9,0,0,1,592.118,198.076ZM504.712,488.334q-2.339,19.529-4.685,39.054Q502.371,507.865,504.712,488.334ZM29.362,502.1c-5.545-4.718-4.017-10.217-.512-16.09,6.08-10.188,11.445-20.836,17.115-31.293Q48.232,450,50.5,445.3l0-.008q-2.268,4.716-4.54,9.42c4.15-19.921-1.227-39.237-3.325-58.776-1.051-9.8-1.282-19.7-1.883-29.548l0,0c-2.128-29.073,1.7-57.566,8.433-85.639a309.249,309.249,0,0,1,35.077-86.6,91.91,91.91,0,0,1,6.025-8.086q.155.976.311,1.953c10.761-20.2,26.449-36.163,42.39-51.768C181.526,88.716,239.45,61.449,305.377,54.356c24.941-2.68,50.453.1,75.691.805,6.971.2,12.269,4.291,11.633,12.242-.653,8.11-6.455,10.266-13.543,9.676-13.188-1.1-26.391-3.189-39.571-3.022-85.921,1.1-157.873,34.356-214.516,102.246-4.591,5.5-9.444,10.758-14.176,16.131-.733.374-1.5.714-2.264,1.046-5.134,9.169-10.371,18.286-15.108,27.677-25.438,50.413-35.378,104.251-32.245,160.9h0q.551,3.923,1.106,7.85c.082,1.68.156,3.355.238,5.031,5.459,22.109,8.3,44.329,2.337,66.865a14.143,14.143,0,0,1-1.825,3.2l-.013-.233.013.237c-6.143,11.571-11.863,23.423-18.607,34.6-2.068,3.43-5.08,5.287-8.317,5.287A10.616,10.616,0,0,1,29.362,502.1Zm23.867-40.225a20.6,20.6,0,0,0,1.579,4.035c1.012-.614,2.04-1.2,3.028-1.855a3.54,3.54,0,0,0,.832-.919c1.355-1.877,2.7-3.771,4.041-5.657v-.009c-1.344,1.887-2.688,3.783-4.04,5.662a3.492,3.492,0,0,1-.836.919c-.985.655-2.012,1.245-3.024,1.859a20.586,20.586,0,0,1-1.579-4.039q-.021-.118-.036-.238Q53.208,461.752,53.228,461.873Zm-.152-5.064c-.441-2.361-.977-4.7-1.527-7.039C52.1,452.108,52.635,454.45,53.076,456.809Zm-5.818-88.153a29.866,29.866,0,0,0,.629,4.938,13.157,13.157,0,0,0,.9,2.465,13.305,13.305,0,0,1-.9-2.46,30.348,30.348,0,0,1-.629-4.938c-.18-3.628-.242-7.26-.348-10.892l0,.005C47.02,361.4,47.082,365.033,47.258,368.656Zm5.879,4.966q-.007-.185-.011-.375Q53.13,373.436,53.137,373.622Zm-.014-.533a72.3,72.3,0,0,0-1.134-9.2A73.407,73.407,0,0,1,53.123,373.089ZM358.1,470.821q-.223,2.349-.453,4.694C357.8,473.952,357.952,472.382,358.1,470.821ZM180.87,468.274c-3.657-.842-9.284-7.024-8.886-10.07,3.255-24.879-1.082-49.112-4.1-73.487q-.527-3.776-1.051-7.553c-.219-1.9-.438-3.791-.66-5.686.653-8.244,1.145-16.509,2.075-24.721-.93,8.208-1.422,16.472-2.075,24.717-4.58-49.559,9.808-93.03,39.649-131.2,19.78-25.3,44.107-44.325,74.242-54.578-.519,1.822-1.7,4.92-1.689,5.718,0-.8,1.172-3.895,1.693-5.714,43.013-18.457,85.917-16.314,128.712.834.66.264,1.051,1.257,1.567,1.908q-1.571,10.1-3.142,20.2c-21.952-8.069-44.1-14.646-67.814-13.869-20.553.679-39.957,6.3-59.244,12.885v0c-13.141,8.781-27.462,16.143-39.211,26.616-36.531,32.57-54.88,74.386-54.439,124.787.047,5.092-.442,10.193-.676,15.289-3.333,1.489-6.908,5.735-9.522-.911q-1.664.848-3.324,1.7v.009q1.665-.854,3.325-1.7c2.614,6.646,6.189,2.4,9.522.911.442,1.725.891,3.445,1.332,5.165l.008.129-.008-.134.008.134q.139,2.39.274,4.776l.007.126-.007-.126.007.13c7.3,24,6.236,48.64,4.9,73.251-.336,6.231-3.946,10.738-9.2,10.738A10.152,10.152,0,0,1,180.87,468.274Zm-9.085-121.867A107.38,107.38,0,0,0,176.8,357.56a6.084,6.084,0,0,1,.954,2.484,6.059,6.059,0,0,0-.954-2.488,107.375,107.375,0,0,1-5.013-11.152c-.52-1.326-.324-2.953-.457-4.445-.723,1.081-1.791,2.119-2.465,3.206.674-1.085,1.742-2.122,2.465-3.2C171.46,343.455,171.261,345.086,171.785,346.408Zm110.961-148.69a6.374,6.374,0,0,0-.056-.884A6.383,6.383,0,0,1,282.745,197.717ZM8.183,440.695C5.3,423.828,3.162,406.819.72,389.874q-.049-.981-.1-1.959.049.979.1,1.959A12.61,12.61,0,0,1,0,387.8c-.054-.275.351-.647.555-.971v-.009q-.24-7.028-.481-14.069.351-1.115.7-2.234l-.7,2.234C.474,351.72-.722,330.5,1.607,309.7c4.263-38.008,15.184-74.312,31.647-108.66,1.473-3.071,2.747-7.069,5.252-8.566,3.161-1.891,8.217-3.266,11.113-1.863,2.813,1.358,4.74,6.333,5.51,10.07.512,2.469-1.477,5.666-2.724,8.346A348.605,348.605,0,0,0,19.413,357.682c0,1.171-.8,2.345-1.238,3.516l0,0c1.571,14.471,2.907,28.979,4.794,43.406,1.391,10.62,3.212,21.2,5.4,31.676,1.594,7.6-.5,12.909-7.455,15.346a7.432,7.432,0,0,1-2.467.425C13.8,452.053,9.372,447.623,8.183,440.695Zm2.52-65.088c-.313-4.043.7-9.086-1.246-11.893-1.874-2.691-2.9-3.308-2.8-4.247-.1.939.921,1.556,2.793,4.251,1.949,2.806.938,7.844,1.246,11.886Zm-3.693-2.054A5.057,5.057,0,0,0,4.7,375.54a5.075,5.075,0,0,1,2.311-1.988,1.989,1.989,0,0,1,1.443.439,2.427,2.427,0,0,0-1.213-.467A.949.949,0,0,0,7.011,373.553ZM3.1,370.461Zm7.8-17.682q1.193-1.782,2.386-3.564h0Q12.089,350.993,10.9,352.779Zm421.969,91.665c-7.307-.46-9.476-5.275-9.882-12.251-1.27-21.906-2.9-43.792-4.384-65.686l.118.008-.118-.008c-1.766-8.4-3.786-16.757-5.252-25.217-5.17-29.817-30.17-58.7-69.041-59.748-34.264-.923-60.734,19.384-71.479,53.374-4.15,13.117-8.741,17.859-15.7,15.138-6.916-2.7-8.237-9.8-4.216-22.614,13.215-42.108,52.485-70.176,94.385-67.463,44.088,2.851,79.626,35.051,87.433,79.787,2.434,13.956,3.653,28.136,5.43,42.215l0,0c1.356,16.672,3.138,33.323,3.884,50.023.352,7.891-4.164,12.463-10.366,12.463Q433.281,444.47,432.869,444.445ZM429.4,377.237c.178-2.854.286-5.715.551-8.562-.269,2.845-.377,5.705-.555,8.558Zm2.954-8.492q-.1.515-.165,1,.062-.485.165-1c.009-.045.017-.091.023-.137C432.366,368.657,432.359,368.7,432.35,368.745Zm-2.16-1.839c.182-.984.425-1.962.632-2.944C430.613,364.944,430.371,365.922,430.19,366.906Zm-10.213-.373h0q.918-1.662,1.841-3.333v0Q420.9,364.861,419.977,366.533Zm-1.027,0-.033,0Zm-.111-.005-.077,0ZM212.59,397.614c.09.854.176,1.708.266,2.562C212.766,399.323,212.68,398.469,212.59,397.614Zm-150.2-7.707q.117,2.513.238,5.031C62.544,393.258,62.466,391.587,62.388,389.907Zm232.662-5.324c.09.874.18,1.745.27,2.619C295.229,386.328,295.139,385.457,295.049,384.583ZM480.1,365.951l1.852,13.385Zm185.417-1.765c-.371-5.9.316-11.868.531-17.806.617,2.984,6.116,5.079,2.356,9.007,3.768-3.931-1.735-6.026-2.348-9.011q.006-2.995.016-5.99l0,0q-.258-3.844-.512-7.683,2.638,2.1,5.275,4.2l-3.993,2.919,4-2.919-5.279-4.2c-4.4-35.352-11.707-69.977-23.749-103.426q.1-.375.2-.75-.1.375-.2.75c-9.183-17.806-17.548-36.137-27.712-53.317-20.686-34.978-47.753-64.059-79.36-88.592a77.456,77.456,0,0,1-6.9-5.515c-4.439-4.352-6.217-9.582-1.813-14.825,4.021-4.787,9.444-5.788,14.516-1.838,9.956,7.748,20.022,15.443,29.337,23.989a351.626,351.626,0,0,1,82.885,113.883,56.785,56.785,0,0,1,2.257,7.33h0c5.826,15.46,12.582,30.626,17.263,46.452,7.033,23.769,12.613,48.006,12.375,73.2q-1.793-1.641-3.591-3.282l0,.005q1.793,1.641,3.59,3.281c.559,11.409,1.36,22.809,1.583,34.226.125,6.426-3.661,10.815-9.675,11.091q-.309.014-.609.014C669.6,375.381,665.944,370.739,665.519,364.186Zm1.754-1.834c.922,1.989,3.188,3.307,4.869,4.913l0-.008c-1.684-1.6-3.943-2.918-4.869-4.905-.76-1.634-.847-5.03.088-6.012C666.427,357.316,666.509,360.715,667.274,362.351Zm9.777.4c.453,1.4,1.125,2.737,1.7,4.1l0-.009c-.574-1.361-1.249-2.685-1.7-4.091-.5-1.546-.8-3.168-1.184-4.755l0,.009C676.254,359.589,676.551,361.2,677.05,362.75Zm-342.09,6.272c.883.008,1.762.012,2.645.02q-1.2,1.3-2.407,2.595C335.12,370.767,335.042,369.892,334.96,369.022Zm247.3-32.294c-3.251-17.339-6-34.86-10.632-51.812a222.7,222.7,0,0,0-31.545-68.464c-1.668-2.424-2.755-5.287-4.115-7.943,1.223-1.574,2.923-2.961,3.548-4.755q.047-.133.091-.268-.045.134-.091.268c-.625,1.794-2.325,3.181-3.548,4.755-10.831-11.84-20.936-24.525-32.619-35.369C447.921,121.7,383.022,100.67,309.405,111c-62.723,8.806-114,39.582-154.091,90.577a50.587,50.587,0,0,1-4.455,4.454c-16.634,25.864-31.22,52.764-38.789,83.191-1.86,7.48-3.247,15.081-5.037,22.581-2.114,8.858-7.471,13.6-13.387,12.137-5.885-1.464-9.2-7.992-7.44-16.867,8.4-42.366,23.828-81.432,50.7-115.005h0c27.024-38.9,62.734-66.52,104.923-84.7,66.919-28.829,134.522-28.617,201.332.146,45.4,19.547,83.1,50.053,110.97,92.8l0,0c23.875,32.619,37.613,69.749,44.987,109.689,1.407,7.63,2.61,15.305,3.794,22.972,1.668,10.807-.77,16.257-7.663,17.44a12.821,12.821,0,0,1-2.169.2C587.311,350.614,584.009,346.02,582.263,336.728ZM143.557,205.893q.575-1.432,1.147-2.865l-1.147,2.86Zm-.566-6.95c0-.73.05-1.5.085-2.26C143.041,197.442,142.992,198.212,142.991,198.943Zm325.522-.493c-5.9-3.978-11.359-8.675-17.275-12.633-59.014-39.489-121.205-44.182-186.132-18.136-1.926.773-3.708,1.96-5.642,2.709-5.467,2.115-9.96.411-12.746-4.718-3.145-5.775-1.438-10.929,3.482-14.727,1.942-1.5,4.49-2.148,6.768-3.164a204.809,204.809,0,0,1,86-17.937c49.746.366,94.416,16.045,133.713,48,1.626,1.326,3.63,2.343,4.841,3.994,3.161,4.319,5.256,9.09,1.329,14.117-2.388,3.062-5.159,4.628-8.133,4.628A11.143,11.143,0,0,1,468.513,198.45ZM67.448,161.731c-5.767-4.328-6.158-10.355-2.18-15.935,6.674-9.355,13.469-18.709,21.061-27.255,59.237-66.7,131.728-106.3,218.947-116.294,63.977-7.333,124.906,3.315,183.072,31.529,4.693,2.282,8.3,6.988,10.89,9.241-.09,11.64-7.389,15.691-16.067,11.673C458.526,43.265,433.311,33.8,406.775,28.208c-63.543-13.385-125.25-7.024-185.37,17.859C166.9,68.628,122.344,104.814,86.313,152.714c-1.536,2.042-3.177,3.994-4.783,5.979-2.516,3.11-5.341,5.161-8.481,5.162A9.324,9.324,0,0,1,67.448,161.731Z" transform="translate(0 0)"/>
    </clipPath>
  </defs>
  <g id="DokunBana" transform="translate(-110 -210.284)">
    <g id="Mask_Group_3" data-name="Mask Group 3" class="cls-2" transform="translate(275.705 210.284)">
      <g id="music-player-play" transform="translate(136.859 95.939)">
        <path id="Path_1" data-name="Path 1" class="cls-3" d="M515.827,277.617,102.264,6.393C90.037-1.184,74.856.079,63.39.079c-45.863,0-45.66,36.857-45.66,46.2V600.625c0,7.894-.2,46.2,45.66,46.2,11.466,0,26.65,1.257,38.874-6.317l413.56-271.221c33.945-21.024,28.08-45.836,28.08-45.836S549.772,298.638,515.827,277.617Z" transform="translate(-17.73 0)"/>
      </g>
    </g>
    <text id="DokunBana-2" data-name="DokunBana" class="cls-4" transform="translate(110 1199.727)"><tspan x="0" y="0">DokunBana</tspan></text>
  </g>
</svg>
