<svg xmlns="http://www.w3.org/2000/svg" viewBox="0 0 260 91.497">
  <defs>
    <style>
      .cls-1 {
        fill: none;
      }

      .cls-2, .cls-4 {
        fill: #fff;
      }

      .cls-3, .cls-4 {
        stroke: none;
      }
    </style>
  </defs>
  <g id="NextGame" transform="translate(-58 -403.503)">
    <g id="Group_17" data-name="Group 17" transform="translate(0 255)">
      <g id="Path_56" data-name="Path 56" class="cls-1" transform="translate(58 163)">
        <path class="cls-3" d="M38.5,0,130,7l91.5-7a38.5,38.5,0,0,1,0,77H38.5a38.5,38.5,0,0,1,0-77Z"/>
        <path class="cls-4" d="M 38.38775634765625 3.000167846679688 C 33.63368225097656 3.014717102050781 29.02320861816406 3.952667236328125 24.68270874023438 5.788536071777344 C 20.45574951171875 7.576393127441406 16.658935546875 10.13649749755859 13.39772033691406 13.39771270751953 C 10.13650512695313 16.65892791748047 7.576385498046875 20.45574951171875 5.788528442382813 24.68271255493164 C 3.938201904296875 29.05739212036133 3 33.70621490478516 3 38.5 C 3 43.29378509521484 3.938201904296875 47.94260787963867 5.788528442382813 52.31728363037109 C 7.576385498046875 56.54425048828125 10.13650512695313 60.34107208251953 13.39772033691406 63.60228729248047 C 16.658935546875 66.86350250244141 20.45574951171875 69.42360687255859 24.68270874023438 71.21146392822266 C 29.05738830566406 73.06178283691406 33.70620727539063 74 38.5 74 L 221.5 74 C 226.2937927246094 74 230.9426116943359 73.06178283691406 235.3172912597656 71.21146392822266 C 239.5442504882813 69.42360687255859 243.341064453125 66.86350250244141 246.6022796630859 63.60228729248047 C 249.8634948730469 60.34107208251953 252.4236145019531 56.54425048828125 254.2114715576172 52.31728363037109 C 256.0617980957031 47.94260787963867 257 43.29378509521484 257 38.5 C 257 33.70621490478516 256.0617980957031 29.05739212036133 254.2114715576172 24.68271255493164 C 252.4236145019531 20.45574951171875 249.8634948730469 16.65892791748047 246.6022796630859 13.39771270751953 C 243.341064453125 10.13649749755859 239.5442504882813 7.576393127441406 235.3172912597656 5.788536071777344 C 230.9767761230469 3.952667236328125 226.3663177490234 3.014717102050781 221.6122436523438 3.000167846679688 L 130.2288513183594 9.991249084472656 L 130 10.00875091552734 L 129.7711486816406 9.991249084472656 L 38.38775634765625 3.000167846679688 M 38.5 0 L 130 7 L 221.5 0 C 242.7629699707031 0 260 17.23703384399414 260 38.5 C 260 59.76296234130859 242.7629699707031 77 221.5 77 L 38.5 77 C 17.23703002929688 77 0 59.76296234130859 0 38.5 C 0 17.23703384399414 17.23703002929688 0 38.5 0 Z"/>
      </g>
    </g>
    <path id="Path_15" data-name="Path 15" class="cls-2" d="M101.1,47.406a59.36,59.36,0,0,0-8.974-14.393A66.855,66.855,0,0,0,80.632,22.089l8.8-16.325a2.043,2.043,0,0,0-.38-2.451A10.316,10.316,0,0,0,81.668,0a17.37,17.37,0,0,0-6.7,1.76,12.672,12.672,0,0,1-4.211,1.26,2.622,2.622,0,0,1-.984-.173C65.67,1.346,62.512.414,59.458.414c-3.866,0-7.162,1.553-10.389,4.867a2.083,2.083,0,0,0-.242,2.589L58.319,22.21a67.976,67.976,0,0,0-11.338,10.8,59.9,59.9,0,0,0-8.974,14.393A48.939,48.939,0,0,0,33.9,66.941,16.093,16.093,0,0,0,49.966,83.008H89.14a16.093,16.093,0,0,0,16.066-16.067A48.94,48.94,0,0,0,101.1,47.406ZM53.245,7.006a9.028,9.028,0,0,1,6.213-2.485c2.451,0,5.212.828,8.887,2.192a7.012,7.012,0,0,0,2.4.414,15.286,15.286,0,0,0,5.8-1.57,14,14,0,0,1,5.108-1.45,5.478,5.478,0,0,1,3.331,1.139L76.7,20.64H62.271ZM89.14,78.866H49.966A11.939,11.939,0,0,1,38.042,66.941c0-11.062,4.055-21.554,12.028-31.184A63.348,63.348,0,0,1,61.788,24.781h15.5A62.155,62.155,0,0,1,89,35.757c7.99,9.63,12.028,20.1,12.028,31.184A11.887,11.887,0,0,1,89.14,78.866Z" transform="translate(117.516 403.503)"/>
  </g>
</svg>
